<mxfile host="app.diagrams.net" modified="2023-10-31T14:12:30.843Z" agent="Mozilla/5.0 (Macintosh; Intel Mac OS X 10_15_7) AppleWebKit/537.36 (KHTML, like Gecko) Chrome/118.0.0.0 Safari/537.36" etag="WHvpSP8vV6Q9m9cip5V7" version="22.0.8" type="device">
  <diagram name="Page-1" id="mbldiVlWLyz6Hup4R4dl">
    <mxGraphModel dx="1194" dy="735" grid="1" gridSize="10" guides="1" tooltips="1" connect="1" arrows="1" fold="1" page="1" pageScale="1" pageWidth="827" pageHeight="1169" math="0" shadow="0">
      <root>
        <mxCell id="0" />
        <mxCell id="1" parent="0" />
        <mxCell id="ckU_G3OYbZQXmC2AFRGo-21" value="" style="rounded=0;whiteSpace=wrap;html=1;dashed=1;opacity=60;fillColor=#dae8fc;strokeColor=#6c8ebf;" vertex="1" parent="1">
          <mxGeometry x="230" y="210" width="590" height="270" as="geometry" />
        </mxCell>
        <mxCell id="ckU_G3OYbZQXmC2AFRGo-23" value="NASA Mission Control Project (nasa-nodejs)" style="text;html=1;strokeColor=none;fillColor=none;align=center;verticalAlign=middle;whiteSpace=wrap;rounded=0;" vertex="1" parent="1">
          <mxGeometry x="230" y="450" width="270" height="30" as="geometry" />
        </mxCell>
        <mxCell id="ckU_G3OYbZQXmC2AFRGo-30" style="edgeStyle=orthogonalEdgeStyle;rounded=0;orthogonalLoop=1;jettySize=auto;html=1;fontFamily=Helvetica;fontSize=12;fontColor=default;startArrow=classic;startFill=1;" edge="1" parent="1" source="ckU_G3OYbZQXmC2AFRGo-24" target="ckU_G3OYbZQXmC2AFRGo-29">
          <mxGeometry relative="1" as="geometry" />
        </mxCell>
        <mxCell id="ckU_G3OYbZQXmC2AFRGo-24" value="Web Application (nasa-fe)" style="rounded=1;whiteSpace=wrap;html=1;fillColor=#66B2FF;" vertex="1" parent="1">
          <mxGeometry x="280" y="350" width="120" height="60" as="geometry" />
        </mxCell>
        <mxCell id="ckU_G3OYbZQXmC2AFRGo-29" value="Node API (nasa-project-api)" style="rounded=1;whiteSpace=wrap;html=1;fillColor=#66B2FF;" vertex="1" parent="1">
          <mxGeometry x="530" y="350" width="120" height="60" as="geometry" />
        </mxCell>
        <mxCell id="ckU_G3OYbZQXmC2AFRGo-31" value="HTTP" style="text;html=1;strokeColor=none;fillColor=none;align=center;verticalAlign=middle;whiteSpace=wrap;rounded=0;fontSize=12;fontFamily=Helvetica;fontColor=default;" vertex="1" parent="1">
          <mxGeometry x="430" y="350" width="60" height="30" as="geometry" />
        </mxCell>
        <mxCell id="ckU_G3OYbZQXmC2AFRGo-33" style="edgeStyle=orthogonalEdgeStyle;rounded=0;orthogonalLoop=1;jettySize=auto;html=1;fontFamily=Helvetica;fontSize=12;fontColor=default;" edge="1" parent="1" source="ckU_G3OYbZQXmC2AFRGo-32" target="ckU_G3OYbZQXmC2AFRGo-29">
          <mxGeometry relative="1" as="geometry">
            <Array as="points">
              <mxPoint x="730" y="380" />
            </Array>
          </mxGeometry>
        </mxCell>
        <mxCell id="ckU_G3OYbZQXmC2AFRGo-32" value="kepler_data.csv" style="shape=document;whiteSpace=wrap;html=1;boundedLbl=1;pointerEvents=0;align=center;verticalAlign=top;fontFamily=Helvetica;fontSize=12;fontColor=default;fillColor=#99FF99;gradientColor=none;" vertex="1" parent="1">
          <mxGeometry x="680" y="260" width="90" height="50" as="geometry" />
        </mxCell>
        <mxCell id="ckU_G3OYbZQXmC2AFRGo-39" style="edgeStyle=orthogonalEdgeStyle;rounded=0;orthogonalLoop=1;jettySize=auto;html=1;fontFamily=Helvetica;fontSize=12;fontColor=default;dashed=1;" edge="1" parent="1" source="ckU_G3OYbZQXmC2AFRGo-37" target="ckU_G3OYbZQXmC2AFRGo-32">
          <mxGeometry relative="1" as="geometry" />
        </mxCell>
        <mxCell id="ckU_G3OYbZQXmC2AFRGo-37" value="" style="ellipse;shape=cloud;whiteSpace=wrap;html=1;pointerEvents=0;align=center;verticalAlign=top;fontFamily=Helvetica;fontSize=12;fontColor=default;fillColor=#99FFCC;gradientColor=none;" vertex="1" parent="1">
          <mxGeometry x="650" y="40" width="120" height="80" as="geometry" />
        </mxCell>
        <mxCell id="ckU_G3OYbZQXmC2AFRGo-40" value="NASA Exoplanet Archive" style="text;html=1;strokeColor=none;fillColor=none;align=center;verticalAlign=middle;whiteSpace=wrap;rounded=0;fontSize=12;fontFamily=Helvetica;fontColor=default;" vertex="1" parent="1">
          <mxGeometry x="680" y="65" width="60" height="30" as="geometry" />
        </mxCell>
        <mxCell id="ckU_G3OYbZQXmC2AFRGo-41" value="manual download" style="text;html=1;strokeColor=none;fillColor=none;align=center;verticalAlign=middle;whiteSpace=wrap;rounded=0;fontSize=12;fontFamily=Helvetica;fontColor=default;" vertex="1" parent="1">
          <mxGeometry x="714" y="140" width="60" height="30" as="geometry" />
        </mxCell>
        <mxCell id="ckU_G3OYbZQXmC2AFRGo-44" style="edgeStyle=orthogonalEdgeStyle;rounded=0;orthogonalLoop=1;jettySize=auto;html=1;entryX=0;entryY=0.5;entryDx=0;entryDy=0;fontFamily=Helvetica;fontSize=12;fontColor=default;startArrow=classic;startFill=1;" edge="1" parent="1" source="ckU_G3OYbZQXmC2AFRGo-42" target="ckU_G3OYbZQXmC2AFRGo-24">
          <mxGeometry relative="1" as="geometry">
            <Array as="points">
              <mxPoint x="200" y="260" />
              <mxPoint x="200" y="380" />
            </Array>
          </mxGeometry>
        </mxCell>
        <mxCell id="ckU_G3OYbZQXmC2AFRGo-42" value="" style="ellipse;whiteSpace=wrap;html=1;pointerEvents=0;align=center;verticalAlign=top;fontFamily=Helvetica;fontSize=12;fontColor=default;fillColor=#66FF66;gradientColor=none;" vertex="1" parent="1">
          <mxGeometry x="30" y="230" width="110" height="60" as="geometry" />
        </mxCell>
        <mxCell id="ckU_G3OYbZQXmC2AFRGo-43" value="Web Browser" style="text;html=1;strokeColor=none;fillColor=none;align=center;verticalAlign=middle;whiteSpace=wrap;rounded=0;fontSize=12;fontFamily=Helvetica;fontColor=default;" vertex="1" parent="1">
          <mxGeometry x="55" y="245" width="60" height="30" as="geometry" />
        </mxCell>
        <mxCell id="ckU_G3OYbZQXmC2AFRGo-45" value="HTTP" style="text;html=1;strokeColor=none;fillColor=none;align=center;verticalAlign=middle;whiteSpace=wrap;rounded=0;fontSize=12;fontFamily=Helvetica;fontColor=default;" vertex="1" parent="1">
          <mxGeometry x="140" y="230" width="60" height="30" as="geometry" />
        </mxCell>
        <mxCell id="ckU_G3OYbZQXmC2AFRGo-46" value="" style="rounded=0;whiteSpace=wrap;html=1;pointerEvents=0;align=center;verticalAlign=top;fontFamily=Helvetica;fontSize=12;fontColor=default;fillColor=#FFCCCC;gradientColor=none;opacity=60;" vertex="1" parent="1">
          <mxGeometry x="221" y="20" width="390" height="130" as="geometry" />
        </mxCell>
        <mxCell id="ckU_G3OYbZQXmC2AFRGo-58" value="" style="shape=cylinder3;whiteSpace=wrap;html=1;boundedLbl=1;backgroundOutline=1;size=15;pointerEvents=0;align=center;verticalAlign=top;fontFamily=Helvetica;fontSize=12;fontColor=default;fillColor=#FF9999;gradientColor=none;" vertex="1" parent="1">
          <mxGeometry x="460" y="58" width="60" height="65" as="geometry" />
        </mxCell>
        <mxCell id="ckU_G3OYbZQXmC2AFRGo-59" value="" style="shape=cylinder3;whiteSpace=wrap;html=1;boundedLbl=1;backgroundOutline=1;size=15;pointerEvents=0;align=center;verticalAlign=top;fontFamily=Helvetica;fontSize=12;fontColor=default;fillColor=#FF9999;gradientColor=none;" vertex="1" parent="1">
          <mxGeometry x="520" y="58" width="60" height="65" as="geometry" />
        </mxCell>
        <mxCell id="ckU_G3OYbZQXmC2AFRGo-62" style="edgeStyle=orthogonalEdgeStyle;rounded=0;orthogonalLoop=1;jettySize=auto;html=1;fontFamily=Helvetica;fontSize=12;fontColor=default;startArrow=classic;startFill=1;" edge="1" parent="1" source="ckU_G3OYbZQXmC2AFRGo-60" target="ckU_G3OYbZQXmC2AFRGo-29">
          <mxGeometry relative="1" as="geometry">
            <Array as="points">
              <mxPoint x="520" y="190" />
              <mxPoint x="590" y="190" />
            </Array>
          </mxGeometry>
        </mxCell>
        <mxCell id="ckU_G3OYbZQXmC2AFRGo-60" value="" style="shape=cylinder3;whiteSpace=wrap;html=1;boundedLbl=1;backgroundOutline=1;size=15;pointerEvents=0;align=center;verticalAlign=top;fontFamily=Helvetica;fontSize=12;fontColor=default;fillColor=#FF9999;gradientColor=none;" vertex="1" parent="1">
          <mxGeometry x="490" y="48" width="60" height="70" as="geometry" />
        </mxCell>
        <mxCell id="ckU_G3OYbZQXmC2AFRGo-61" value="MongoDB Cluster" style="text;html=1;strokeColor=none;fillColor=none;align=center;verticalAlign=middle;whiteSpace=wrap;rounded=0;fontSize=12;fontFamily=Helvetica;fontColor=default;" vertex="1" parent="1">
          <mxGeometry x="491" y="81" width="60" height="30" as="geometry" />
        </mxCell>
        <mxCell id="ckU_G3OYbZQXmC2AFRGo-63" value="mongodb driver" style="text;html=1;strokeColor=none;fillColor=none;align=center;verticalAlign=middle;whiteSpace=wrap;rounded=0;fontSize=12;fontFamily=Helvetica;fontColor=default;" vertex="1" parent="1">
          <mxGeometry x="525" y="155" width="90" height="30" as="geometry" />
        </mxCell>
        <mxCell id="ckU_G3OYbZQXmC2AFRGo-64" value="MongoDB Atlas (nasa database)" style="text;html=1;strokeColor=none;fillColor=none;align=center;verticalAlign=middle;whiteSpace=wrap;rounded=0;fontSize=12;fontFamily=Helvetica;fontColor=default;" vertex="1" parent="1">
          <mxGeometry x="220" y="120" width="200" height="30" as="geometry" />
        </mxCell>
      </root>
    </mxGraphModel>
  </diagram>
</mxfile>
